<?xml version="1.0" standalone="no"?>
<!DOCTYPE svg PUBLIC "-//W3C//DTD SVG 20010904//EN"
 "http://www.w3.org/TR/2001/REC-SVG-20010904/DTD/svg10.dtd">
<svg version="1.0" xmlns="http://www.w3.org/2000/svg"
 width="512.000000pt" height="512.000000pt" viewBox="0 0 512.000000 512.000000"
 preserveAspectRatio="xMidYMid meet">
<metadata>
Created by potrace 1.14, written by Peter Selinger 2001-2017
</metadata>
<g transform="translate(0.000000,512.000000) scale(0.100000,-0.100000)"
fill="#000000" stroke="none">
<path d="M929 3927 c0 -12 -1 -467 -1 -1012 -2 -1052 -4 -1108 -49 -1198 -12
-23 -34 -58 -49 -77 -52 -65 -190 -133 -340 -166 -36 -8 -75 -17 -87 -19 -16
-4 -21 -11 -18 -28 2 -12 11 -65 20 -117 25 -154 18 -142 73 -135 26 4 63 11
82 15 19 5 49 12 65 15 143 29 350 130 458 224 52 46 103 128 131 212 50 148
54 241 54 1316 l1 991 -169 1 c-168 0 -170 0 -171 -22z"/>
<path d="M2029 3932 c0 -10 -2 -24 -4 -32 -1 -9 -6 -87 -10 -175 -4 -88 -8
-182 -10 -210 -2 -27 -6 -106 -9 -175 -4 -69 -9 -154 -11 -190 -2 -36 -7 -121
-10 -190 -4 -69 -8 -150 -10 -180 -2 -30 -6 -118 -10 -195 -4 -77 -8 -167 -10
-200 -13 -223 -17 -305 -30 -550 -3 -60 -7 -148 -10 -195 -2 -47 -7 -134 -11
-195 -3 -60 -7 -136 -10 -168 l-3 -57 169 0 c129 0 170 3 171 13 0 6 2 20 4
29 2 9 6 88 10 175 4 87 8 178 10 203 1 25 6 101 9 170 9 169 15 288 21 390 2
47 7 135 10 195 3 61 7 142 10 180 12 188 19 451 19 650 l-1 220 22 -65 c12
-36 25 -72 28 -80 4 -8 33 -91 66 -185 32 -93 99 -276 149 -405 86 -226 179
-472 407 -1075 58 -154 118 -310 132 -348 l26 -67 171 2 170 3 77 205 c42 113
82 216 88 230 5 14 22 59 37 100 14 41 32 89 39 105 7 17 37 93 65 170 29 77
64 169 78 205 13 36 31 83 39 105 8 22 47 128 88 235 40 107 112 303 160 435
47 132 90 249 94 260 5 11 19 49 32 85 12 36 26 69 30 74 5 5 9 -71 9 -170 0
-98 2 -226 5 -284 19 -477 25 -601 30 -710 2 -47 7 -146 10 -220 3 -74 8 -169
10 -210 2 -41 7 -147 11 -235 3 -88 8 -187 9 -220 2 -33 4 -84 4 -112 l1 -53
171 0 170 0 -6 147 c-7 153 -8 176 -19 378 -4 66 -9 167 -11 225 -3 58 -8 141
-10 185 -3 44 -7 127 -10 185 -3 58 -7 143 -10 190 -2 47 -7 139 -10 205 -3
66 -8 156 -10 200 -2 44 -7 123 -10 175 -2 52 -7 142 -10 200 -6 106 -8 143
-21 415 -6 137 -10 199 -13 217 0 3 -97 6 -213 5 l-213 -2 -31 -80 c-18 -44
-36 -91 -42 -105 -6 -14 -17 -43 -25 -65 -20 -55 -166 -433 -182 -470 -7 -16
-33 -84 -58 -150 -25 -66 -110 -284 -187 -485 -78 -201 -159 -414 -181 -475
-21 -60 -39 -110 -39 -110 -1 0 -27 -78 -58 -174 l-58 -174 -17 49 c-23 68
-108 302 -168 464 -118 314 -221 586 -229 605 -5 11 -23 58 -40 105 -17 47
-35 94 -40 105 -4 11 -36 94 -70 185 -34 91 -77 203 -95 250 -18 47 -63 165
-99 263 -37 98 -75 197 -86 221 l-18 44 -211 0 c-190 0 -211 -1 -212 -16z"/>
</g>
</svg>
